<?xml version="1.0" encoding="utf-8"?>
<!-- Generator: Adobe Illustrator 24.2.0, SVG Export Plug-In . SVG Version: 6.00 Build 0)  -->
<svg version="1.1" id="Calque_1" xmlns="http://www.w3.org/2000/svg" xmlns:xlink="http://www.w3.org/1999/xlink" x="0px" y="0px"
	 viewBox="0 0 227.1 100" style="enable-background:new 0 0 227.1 100;" xml:space="preserve">
<style type="text/css">
	.st0{fill:#ffffff33;}
	.st1{fill:#FFFFFF;}
</style>
<path class="st0" d="M134,25.3c5.5-5.9,11-11.8,16.4-17.6c2.1-2.2,4-4.5,6.1-6.7c0.5-0.5,1.1-0.8,1.8-0.9C180.9,0,203.4,0,226,0
	c1.1,0,1.3,0.2,0.9,1.3c-2.2,5.6-4.4,11.3-6.5,17c-0.3,0.9-0.8,1.2-1.7,1.2c-8,0-16,0-24-0.1c-1.2,0-1.9,0.3-2.3,1.5
	c-2,5.4-4.1,10.9-6.2,16.3c-0.5,1.2-0.2,1.3,1,1.3c7.3,0,14.6,0,21.9,0c1.3,0,1.7,0.2,1.1,1.5c-2.2,5.5-4.3,11-6.4,16.6
	c-0.4,1-0.8,1.3-1.9,1.3c-7.4-0.1-14.8,0-22.2-0.1c-1,0-1.5,0.2-1.9,1.2c-2.5,6.7-5.1,13.4-7.7,20.1c-0.4,1.1-0.3,1.3,0.9,1.3
	c8.7,0,17.4,0,26-0.1c1.4,0,1.6,0.3,1.1,1.6c-2.2,5.4-4.3,10.9-6.3,16.4c-0.4,1.1-0.9,1.5-2.1,1.5c-22.3,0-44.6,0-66.9,0
	c-1.5,0-2.1-0.2-1.9-1.9c0.9-9.8,1.7-19.6,2.5-29.4c0.2-2.5,0.4-5.1,0.6-7.6c0-0.2,0-0.4,0-0.6c-0.2,0.1-0.5,0.2-0.6,0.3
	c-1.9,2-3.7,3.9-4.7,6.6c-3.9,10.4-8,20.8-11.9,31.2c-0.4,1-0.8,1.3-1.9,1.3c-6.2-0.1-12.5-0.1-18.7,0c-1.2,0-1.4-0.2-0.9-1.4
	c12.4-32.3,24.8-64.6,37.2-97c0.4-1.1,0.9-1.5,2.1-1.5c6.2,0.1,12.4,0.1,18.6,0c1.2,0,1.4,0.1,0.9,1.3c-3.2,7.4-6.4,14.9-9.5,22.3
	C134.2,24.2,134.1,24.7,134,25.3c0-0.1,0-0.1,0-0.1L134,25.3z M177.9,2.3c-0.4,0.3-0.7,0.6-1.1,0.9c-10,11.3-20,22.7-30,34
	c-0.6,0.7-0.9,1.6-1,2.5c-0.3,5.2-0.5,10.3-0.7,15.5c-0.4,8-0.8,16-1.2,24.1c-0.2,3.7-0.3,7.5-0.5,11.2c0,0.2,0,0.5,0.1,0.7
	c0.2-0.2,0.3-0.4,0.4-0.6c0.1-0.2,0.2-0.4,0.2-0.6L177.9,2.3L177.9,2.3L177.9,2.3z"/>
<path class="st0" d="M57,41.5c0.2-0.3,0.4-0.6,0.6-1c5-13,9.9-25.9,14.9-38.9C73,0.4,73.5,0,74.9,0c5.6,0.1,11.2,0.1,16.8,0
	c1.4,0,1.4,0.3,1,1.5c-9.9,25.8-19.8,51.6-29.7,77.4c-2.5,6.5-5,13-7.5,19.5c-0.4,1-0.9,1.4-2,1.4c-5.3-0.1-10.6-0.1-15.9,0
	c-1.1,0-1.5-0.2-1.4-1.4c0.3-8.3,0.6-16.7,0.9-25c0.2-6,0.4-12,0.6-18.1c0-0.4-0.1-0.7-0.2-1.1c-0.2,0.3-0.3,0.6-0.5,1
	C32,68.1,27,81.1,22,94c-0.2,0.4-0.4,0.9-0.5,1.3c-0.6,1.5-0.8,3.5-1.9,4.2c-1.1,0.7-3.1,0.2-4.7,0.2c-4.5,0-9-0.1-13.5,0
	c-1.6,0-1.5-0.4-1.1-1.6c5.7-14.7,11.3-29.3,16.9-44C24,36.6,30.8,19,37.5,1.4c0.4-1.1,0.9-1.4,2-1.4c5.5,0.1,11,0.1,16.5,0
	c1.4,0,1.6,0.4,1.6,1.7L57,41.5z"/>
<path class="st0" d="M108.2,0c3.1,0,6.1,0,9.2,0c1.2,0,1.6,0.1,1,1.4c-5.9,15.2-11.7,30.4-17.6,45.6C94.4,64,87.9,81,81.5,97.9
	c-0.5,1.4-1.2,2-2.8,1.9c-6-0.1-12.1-0.1-18.1,0c-1.5,0-1.5-0.4-1-1.6C69.3,73,79,47.6,88.7,22.3c2.7-6.9,5.3-13.9,8-20.9
	c0.4-1.1,1-1.5,2.2-1.5C102,0.1,105.1,0,108.2,0z"/>
<path class="st1" d="M177.8,2.3L177.8,2.3L177.8,2.3L177.8,2.3z"/>
<path class="st1" d="M134,25.3v-0.1C134,25.2,134,25.2,134,25.3L134,25.3z"/>
</svg>
